<svg xmlns="http://www.w3.org/2000/svg" viewBox="0 0 64 64"><rect width="64" height="64" rx="15" fill="#101318"/><rect x="6.55" y="6.55" width="5.4" height="5.4" rx="1.4" fill="#10261a"/><rect x="13.05" y="6.55" width="5.4" height="5.4" rx="1.4" fill="#4ea477"/><rect x="19.55" y="6.55" width="5.4" height="5.4" rx="1.4" fill="#4ea477"/><rect x="26.05" y="6.55" width="5.4" height="5.4" rx="1.4" fill="#68c291"/><rect x="32.55" y="6.55" width="5.4" height="5.4" rx="1.4" fill="#255a3f"/><rect x="39.05" y="6.55" width="5.4" height="5.4" rx="1.4" fill="#79d09f"/><rect x="45.55" y="6.55" width="5.4" height="5.4" rx="1.4" fill="#a4e9bf"/><rect x="52.05" y="6.55" width="5.4" height="5.4" rx="1.4" fill="#255a3f"/><rect x="6.55" y="13.05" width="5.4" height="5.4" rx="1.4" fill="#327754"/><rect x="13.05" y="13.05" width="5.4" height="5.4" rx="1.4" fill="#3a865f"/><rect x="19.55" y="13.05" width="5.4" height="5.4" rx="1.4" fill="#255a3f"/><rect x="26.05" y="13.05" width="5.4" height="5.4" rx="1.4" fill="#79d09f"/><rect x="32.55" y="13.05" width="5.4" height="5.4" rx="1.4" fill="#3a865f"/><rect x="39.05" y="13.05" width="5.4" height="5.4" rx="1.4" fill="#1f4c35"/><rect x="45.55" y="13.05" width="5.4" height="5.4" rx="1.4" fill="#153223"/><rect x="52.05" y="13.05" width="5.4" height="5.4" rx="1.4" fill="#79d09f"/><rect x="6.55" y="19.55" width="5.4" height="5.4" rx="1.4" fill="#1a3f2c"/><rect x="13.05" y="19.55" width="5.4" height="5.4" rx="1.4" fill="#1f4c35"/><rect x="19.55" y="19.55" width="5.4" height="5.4" rx="1.4" fill="#a4e9bf"/><rect x="26.05" y="19.55" width="5.4" height="5.4" rx="1.4" fill="#a4e9bf"/><rect x="32.55" y="19.55" width="5.4" height="5.4" rx="1.4" fill="#a4e9bf"/><rect x="39.05" y="19.55" width="5.4" height="5.4" rx="1.4" fill="#0b1a12"/><rect x="45.55" y="19.55" width="5.4" height="5.4" rx="1.4" fill="#153223"/><rect x="52.05" y="19.55" width="5.4" height="5.4" rx="1.4" fill="#43956b"/><rect x="6.55" y="26.05" width="5.4" height="5.4" rx="1.4" fill="#1f4c35"/><rect x="13.05" y="26.05" width="5.4" height="5.4" rx="1.4" fill="#327754"/><rect x="19.55" y="26.05" width="5.4" height="5.4" rx="1.4" fill="#0b1a12"/><rect x="26.05" y="26.05" width="5.4" height="5.4" rx="1.4" fill="#79d09f"/><rect x="32.55" y="26.05" width="5.4" height="5.4" rx="1.4" fill="#1a3f2c"/><rect x="39.05" y="26.05" width="5.4" height="5.4" rx="1.4" fill="#3a865f"/><rect x="45.55" y="26.05" width="5.4" height="5.4" rx="1.4" fill="#10261a"/><rect x="52.05" y="26.05" width="5.4" height="5.4" rx="1.4" fill="#68c291"/><rect x="6.55" y="32.55" width="5.4" height="5.4" rx="1.4" fill="#0b1a12"/><rect x="13.05" y="32.55" width="5.4" height="5.4" rx="1.4" fill="#2b6849"/><rect x="19.55" y="32.55" width="5.4" height="5.4" rx="1.4" fill="#327754"/><rect x="26.05" y="32.55" width="5.4" height="5.4" rx="1.4" fill="#10261a"/><rect x="32.55" y="32.55" width="5.4" height="5.4" rx="1.4" fill="#8dddae"/><rect x="39.05" y="32.55" width="5.4" height="5.4" rx="1.4" fill="#1a3f2c"/><rect x="45.55" y="32.55" width="5.4" height="5.4" rx="1.4" fill="#68c291"/><rect x="52.05" y="32.55" width="5.4" height="5.4" rx="1.4" fill="#68c291"/><rect x="6.55" y="39.05" width="5.4" height="5.4" rx="1.4" fill="#4ea477"/><rect x="13.05" y="39.05" width="5.4" height="5.4" rx="1.4" fill="#0b1a12"/><rect x="19.55" y="39.05" width="5.4" height="5.4" rx="1.4" fill="#0b1a12"/><rect x="26.05" y="39.05" width="5.4" height="5.4" rx="1.4" fill="#1f4c35"/><rect x="32.55" y="39.05" width="5.4" height="5.4" rx="1.4" fill="#10261a"/><rect x="39.05" y="39.05" width="5.4" height="5.4" rx="1.4" fill="#1a3f2c"/><rect x="45.55" y="39.05" width="5.4" height="5.4" rx="1.4" fill="#1a3f2c"/><rect x="52.05" y="39.05" width="5.4" height="5.4" rx="1.4" fill="#3a865f"/><rect x="6.55" y="45.55" width="5.4" height="5.4" rx="1.4" fill="#2b6849"/><rect x="13.05" y="45.55" width="5.4" height="5.4" rx="1.4" fill="#327754"/><rect x="19.55" y="45.55" width="5.4" height="5.4" rx="1.4" fill="#5ab384"/><rect x="26.05" y="45.55" width="5.4" height="5.4" rx="1.4" fill="#68c291"/><rect x="32.55" y="45.55" width="5.4" height="5.4" rx="1.4" fill="#5ab384"/><rect x="39.05" y="45.55" width="5.4" height="5.4" rx="1.4" fill="#4ea477"/><rect x="45.55" y="45.55" width="5.4" height="5.4" rx="1.4" fill="#327754"/><rect x="52.05" y="45.55" width="5.4" height="5.4" rx="1.4" fill="#10261a"/><rect x="6.55" y="52.05" width="5.4" height="5.4" rx="1.4" fill="#327754"/><rect x="13.05" y="52.05" width="5.4" height="5.4" rx="1.4" fill="#10261a"/><rect x="19.55" y="52.05" width="5.4" height="5.4" rx="1.4" fill="#3a865f"/><rect x="26.05" y="52.05" width="5.4" height="5.4" rx="1.4" fill="#5ab384"/><rect x="32.55" y="52.05" width="5.4" height="5.4" rx="1.4" fill="#8dddae"/><rect x="39.05" y="52.05" width="5.4" height="5.4" rx="1.4" fill="#1f4c35"/><rect x="45.55" y="52.05" width="5.4" height="5.4" rx="1.4" fill="#0b1a12"/><rect x="52.05" y="52.05" width="5.4" height="5.4" rx="1.4" fill="#a4e9bf"/></svg>
